<svg width="577" height="359" viewBox="0 0 577 359" fill="none" xmlns="http://www.w3.org/2000/svg">
<path d="M42.6328 172.127L0 258.282H84.1724L42.6328 172.127Z" fill="#0F2C45"/>
<path d="M86.1768 72.6477L166.523 258.283H233.387L117.878 0L86.1768 72.6477Z" fill="#0F2C45"/>
<path d="M287.846 321.913H294.056V326.812C296.54 323.224 300.404 321.223 304.82 321.223C312.203 321.223 316.826 326.26 316.826 334.195V358H310.616V335.851C310.616 330.124 307.994 327.019 303.095 327.019C300.611 327.019 298.472 327.916 296.678 329.71C294.953 331.435 294.056 333.712 294.056 336.472V358H287.846V321.913Z" fill="#0F2C45"/>
<path d="M275.602 326.812C278.431 330.124 279.949 334.747 279.949 339.991C279.949 345.235 278.431 349.858 275.602 353.17C272.566 356.758 268.15 358.759 263.182 358.759C258.214 358.759 253.798 356.758 250.762 353.17C247.933 349.858 246.415 345.235 246.415 339.991C246.415 334.747 247.933 330.124 250.762 326.812C253.798 323.224 258.214 321.223 263.182 321.223C268.15 321.223 272.566 323.224 275.602 326.812ZM252.694 339.991C252.694 348.202 256.834 353.446 263.182 353.446C269.53 353.446 273.67 348.202 273.67 339.991C273.67 331.711 269.53 326.467 263.182 326.467C256.834 326.467 252.694 331.711 252.694 339.991Z" fill="#0F2C45"/>
<path d="M232.047 308.458H238.809V315.634H232.047V308.458ZM232.323 358V321.913H238.533V358H232.323Z" fill="#0F2C45"/>
<path d="M219.499 358.345C212.599 358.345 209.839 355.654 209.839 349.375V327.226H204.25V321.913H209.839V311.356H215.98V321.913H224.191V327.226H215.98V348.409C215.98 351.652 217.153 352.894 221.017 352.894C222.673 352.894 223.639 352.756 224.95 352.48V357.793C223.294 358.138 221.431 358.345 219.499 358.345Z" fill="#0F2C45"/>
<path d="M192.702 353.929C190.425 356.896 186.285 358.621 181.593 358.621C178.143 358.621 175.314 357.655 173.037 355.792C170.829 353.86 169.725 351.376 169.725 348.271C169.725 342.13 173.727 338.473 183.387 336.472L192.15 334.678V333.16C192.15 328.951 189.735 326.674 185.043 326.674C180.627 326.674 177.798 328.675 176.694 332.815L170.829 331.297C172.692 325.156 178.143 321.223 185.25 321.223C193.599 321.223 198.291 325.432 198.291 332.884V350.479C198.291 352.687 199.671 353.584 202.155 353.032V358C196.566 358.759 193.461 357.31 192.702 353.929ZM175.866 347.995C175.866 351.514 178.281 353.584 182.352 353.584C185.112 353.584 187.458 352.825 189.321 351.376C191.184 349.858 192.15 347.995 192.15 345.718V339.508L185.112 341.026C178.212 342.406 175.866 344.407 175.866 347.995Z" fill="#0F2C45"/>
<path d="M147.839 358L134.315 321.913H140.87L151.013 350.41L161.018 321.913H167.504L153.98 358H147.839Z" fill="#0F2C45"/>
<path d="M127.292 326.812C130.121 330.124 131.639 334.747 131.639 339.991C131.639 345.235 130.121 349.858 127.292 353.17C124.256 356.758 119.84 358.759 114.872 358.759C109.904 358.759 105.488 356.758 102.452 353.17C99.6235 349.858 98.1055 345.235 98.1055 339.991C98.1055 334.747 99.6235 330.124 102.452 326.812C105.488 323.224 109.904 321.223 114.872 321.223C119.84 321.223 124.256 323.224 127.292 326.812ZM104.384 339.991C104.384 348.202 108.524 353.446 114.872 353.446C121.22 353.446 125.36 348.202 125.36 339.991C125.36 331.711 121.22 326.467 114.872 326.467C108.524 326.467 104.384 331.711 104.384 339.991Z" fill="#0F2C45"/>
<path d="M61.6421 321.913H67.8521V326.812C70.3361 323.224 74.2001 321.223 78.6161 321.223C85.9991 321.223 90.6221 326.26 90.6221 334.195V358H84.4121V335.851C84.4121 330.124 81.7901 327.019 76.8911 327.019C74.4071 327.019 72.2681 327.916 70.4741 329.71C68.7491 331.435 67.8521 333.712 67.8521 336.472V358H61.6421V321.913Z" fill="#0F2C45"/>
<path d="M22.6948 321.913H28.9048V326.812C31.3888 323.224 35.2528 321.223 39.6688 321.223C47.0518 321.223 51.6748 326.26 51.6748 334.195V358H45.4648V335.851C45.4648 330.124 42.8428 327.019 37.9438 327.019C35.4598 327.019 33.3208 327.916 31.5268 329.71C29.8018 331.435 28.9048 333.712 28.9048 336.472V358H22.6948V321.913Z" fill="#0F2C45"/>
<path d="M12.0752 358H5.45117V308.458H12.0752V358Z" fill="#0F2C45"/>
<path d="M336.69 5.6582H274.562V258.282H336.69V5.6582Z" fill="#0F2C45"/>
<path d="M429.972 21.9043C417.947 33.5863 411.935 47.0937 411.935 61.6962C411.935 85.2429 423.959 108.242 441.814 126.13L558.963 243.498C570.988 231.816 577 218.309 577 203.706C577 180.159 564.975 157.16 547.121 139.272L429.972 21.9043Z" fill="#0F2C45"/>
<path d="M352.723 258.283H471.329L412.117 198.96L352.723 258.283Z" fill="#0F2C45"/>
<path d="M492.828 5.6582L577 89.6229V5.6582H492.828Z" fill="#0F2C45"/>
</svg>
