<svg width="870" height="186" viewBox="0 0 870 186" fill="none" xmlns="http://www.w3.org/2000/svg">
<path d="M63 52.0773L120.818 185H169L85.8864 0L63 52.0773Z" fill="#0F2C45"/>
<path d="M0 185H61L30.8951 124L0 185Z" fill="#0F2C45"/>
<path d="M243 4H198V185H243V4Z" fill="#0F2C45"/>
<path d="M310.061 16C301.354 24.3348 297 34.0191 297 44.5243C297 61.4675 305.707 77.8818 318.768 90.7944L403.939 175C412.646 166.665 417 156.981 417 146.476C417 129.532 408.293 113.118 395.232 100.205L310.061 16Z" fill="#0F2C45"/>
<path d="M255 185H340L297.491 143L255 185Z" fill="#0F2C45"/>
<path d="M417 64V4H355L417 64Z" fill="#0F2C45"/>
<path d="M513.545 114.504C516.909 116.15 520.509 117 524.364 117C528.764 117 532.8 115.716 535.8 113.527C539.164 110.905 541 107.323 541 103.127C541 98.9312 539.345 95.8926 535.927 93.885C534.945 93.27 533.782 92.7276 532.382 92.2393C531.036 91.7509 528.709 91.1359 525.418 90.4125C521.818 89.6167 520.582 89.2549 519.545 88.8389C517.109 87.8622 516.127 86.5961 516.127 84.4618C516.127 80.9892 519.364 78.6198 524.073 78.6198C528.782 78.6198 532.018 80.6275 534.891 85.0045L540.636 80.0848C537.455 75.1651 531.218 72 524.309 72C520.091 72 516.182 73.1575 513.436 75.346C510.2 77.7696 508.491 81.188 508.491 85.2576C508.491 89.092 509.891 91.8956 512.764 93.8309C514.727 95.1151 517.036 96.0735 522.182 97.3034C522.545 97.3577 523.291 97.5387 524.327 97.8461L526.764 98.3886C528.909 98.9312 530.182 99.4197 531.164 100.089C532.636 100.993 533.309 102.223 533.309 103.923C533.309 107.884 529.945 110.362 524.636 110.362C519.691 110.362 515.109 107.685 511.982 102.874L506 107.794C507.655 110.525 510.218 112.786 513.582 114.486L513.545 114.504Z" fill="#0F2C45"/>
<path d="M644 73H636V80H644V73Z" fill="#0F2C45"/>
<path d="M738.714 99.3843C737.883 98.9525 736.996 98.5926 735.92 98.3047C734.844 97.9449 732.937 97.459 730.218 96.9192C727.424 96.3794 726.857 96.1995 726.159 96.0195C724.384 95.3538 723.629 94.6341 723.629 93.3565C723.629 91.2333 725.649 89.9197 728.764 89.9197C732.389 89.9197 735.561 91.5573 737.525 94.4003L742.66 89.9918C740.187 86.3571 734.863 84 729.217 84C725.404 84 722.307 84.9716 719.815 86.8429C717.398 88.7142 716.209 91.0714 716.209 94.0403C716.209 97.0092 717.417 99.1866 719.758 100.698C721.344 101.67 723.176 102.209 727.499 103.109C730.237 103.649 731.88 103.955 732.389 104.135C734.73 104.8 735.561 105.646 735.561 107.158C735.561 109.641 733.145 111.08 729.35 111.08C725.555 111.08 721.665 109.029 719.702 105.934L714 110.288C716.851 114.409 722.76 117 729.293 117C733.22 117 736.467 116.028 739.073 114.031C741.678 112.034 743 109.551 743 106.474C743 103.397 741.603 100.914 738.752 99.4023L738.714 99.3843Z" fill="#0F2C45"/>
<path d="M644 85H637V116H644V85Z" fill="#0F2C45"/>
<path d="M625.141 85L617.094 107.482L608.991 85H601L613.174 116H620.845L633 85H625.141Z" fill="#0F2C45"/>
<path d="M665.599 110.706C660.519 110.706 657.241 106.767 657.241 100.491C657.241 94.2148 660.501 90.2223 665.599 90.2223C669.165 90.2223 671.777 92.4522 672.75 96.2648L678.874 92.9378C677.001 87.4348 671.975 84 665.617 84C661.078 84 657.079 85.6905 654.233 88.7657C651.513 91.733 650 95.8333 650 100.491C650 105.149 651.513 109.249 654.233 112.216C657.079 115.291 661.078 117 665.617 117C672.101 117 677.235 113.367 679 107.81L672.768 104.663C671.795 108.53 669.201 110.706 665.617 110.706H665.599Z" fill="#0F2C45"/>
<path d="M698 84C693.679 84 689.839 85.7615 687.018 88.9608C684.429 91.9265 683 96.0965 683 100.5C683 105.155 684.446 109.253 687.089 112.219C689.911 115.292 693.804 117 698.321 117C704.571 117 709.607 113.675 711.821 108.121L705.643 105.766C704.679 108.912 701.929 110.835 698.321 110.835C693.696 110.835 690.464 107.456 689.911 102.082H712V99.6552C712 94.9999 710.732 91.2076 708.214 88.3677C705.696 85.474 702.268 84.018 698.018 84.018L698 84ZM690.25 96.6177C691.268 92.4478 694.089 90.0932 697.929 90.0932C702.071 90.0932 704.643 92.6994 704.714 96.6177H690.25Z" fill="#0F2C45"/>
<path d="M545 100.491C545 105.149 546.496 109.249 549.23 112.216C552.149 115.291 556.176 117 560.85 117C567.315 117 572.525 113.673 574.815 108.116L568.424 105.76C567.426 108.907 564.581 110.832 560.85 110.832C556.065 110.832 552.722 107.451 552.149 102.073H575V99.6457C575 94.9879 573.688 91.1935 571.084 88.3521C568.479 85.4568 564.932 84 560.536 84C556.139 84 552.094 85.7624 549.175 88.9635C546.496 91.9308 545.018 96.1029 545.018 100.509L545 100.491ZM560.462 90.0965C564.748 90.0965 567.408 92.7041 567.482 96.6246H552.518C553.571 92.4524 556.49 90.0965 560.462 90.0965Z" fill="#0F2C45"/>
<path d="M599 92.1605V85.1222C598.165 85.0698 597.538 85 596.836 85C592.679 85 589.187 86.8687 587.649 89.7504V85.1746H580V116H587.649V99.7926C587.649 95.0946 591.085 91.9859 596.191 91.9859C597.216 91.9859 597.975 91.9859 599 92.1605Z" fill="#0F2C45"/>
<path d="M651.36 42.9009C647.543 42.9009 643.67 40.7873 641.706 37.5986L636 42.0851C638.853 46.3305 644.766 49 651.303 49C655.233 49 658.482 47.9989 661.07 45.9411C663.678 43.8833 665 41.325 665 38.1549C665 34.9848 663.602 32.4265 660.749 30.8693C659.918 30.4243 659.03 30.0534 657.953 29.7568C656.876 29.386 654.968 28.8854 652.248 28.3293C649.451 27.7731 648.885 27.5877 648.186 27.4023C646.41 26.7164 645.635 25.9749 645.635 24.6586C645.635 22.471 647.676 21.0993 650.774 21.0993C654.401 21.0993 657.575 22.7863 659.54 25.7155L664.679 21.1733C662.204 17.4285 656.876 15 651.227 15C647.411 15 644.313 16.001 641.819 17.929C639.401 19.8571 638.192 22.2856 638.192 25.3445C638.192 28.4034 639.401 30.6468 641.743 32.204C643.33 33.2051 645.163 33.7612 649.489 34.7067C652.21 35.2629 653.872 35.5779 654.382 35.7633C656.725 36.4492 657.556 37.3207 657.556 38.8779C657.556 41.4363 655.138 42.9378 651.341 42.9378L651.36 42.9009Z" fill="#0F2C45"/>
<path d="M636 12.9812V4H628V12.5H631.647V13.2128C631.647 15.5472 630.48 16.7411 628 16.9906V21C632.862 20.9465 636 17.8281 636 12.9812Z" fill="#0F2C45"/>
<path d="M560.247 31.2698C560.247 26.4202 563.502 23.2113 568.339 23.2113C569.31 23.2113 570.029 23.2112 571 23.3915V16.1263C570.209 16.0722 569.615 16 568.95 16C565.012 16 561.703 17.947 560.247 20.9036V16.1802H553V48H560.247V31.2698Z" fill="#0F2C45"/>
<path d="M518.448 37.9527H537.352L541.126 48H549L532.418 4H523.582L507 48H514.747L518.466 37.9527H518.448ZM527.846 12.6979L534.794 31.0783H521.006L527.828 12.6979H527.846Z" fill="#0F2C45"/>
<path d="M584.251 28.9961C584.251 24.8138 586.968 21.9155 590.549 21.9155C594.129 21.9155 595.874 24.3186 595.874 28.8127V47.9816H603.126V28.9961C603.126 24.8138 605.842 21.9155 609.423 21.9155C613.004 21.9155 614.749 24.3186 614.749 28.8127V47.9816H622V26.6481C622 23.1261 621.028 20.3563 619.031 18.2101C617.034 16.0456 614.443 15 611.222 15C607.408 15 604.205 16.4857 601.362 19.4941C599.491 16.5408 596.576 15 592.96 15C589.343 15 586.428 16.3574 584.251 19.0722V15.6236H577V48H584.251V29.0145V28.9961Z" fill="#0F2C45"/>
<path d="M807.537 19.0016C805.611 16.5682 802.13 15 798.315 15C794.019 15 790.222 16.6404 787.667 19.7948C785.241 22.6428 784 26.5183 784 30.8263C784 35.1344 785.241 39.0098 787.667 41.8579C790.222 45.0123 794.019 46.6527 798.315 46.6527C802.111 46.6527 805.593 45.1384 807.537 42.6509V44.886C807.537 50.2756 804.556 53.1237 799.074 53.1237C795.093 53.1237 792.167 51.0148 791.167 47.3016L784.204 49.7349C786.204 55.7915 791.37 59 799.074 59C803.926 59 807.778 57.6662 810.648 54.9984C813.574 52.3307 815 48.7615 815 44.2191V15.6308H807.537V19.0196V19.0016ZM807.667 31.2409C807.667 36.8107 804.556 40.2716 799.759 40.2716C794.593 40.2716 791.537 36.7026 791.537 30.8263C791.537 24.9501 794.593 21.3811 799.759 21.3811C804.556 21.3811 807.667 24.8959 807.667 30.5198V31.2589V31.2409Z" fill="#0F2C45"/>
<path d="M859.625 15.2143C856.149 15.2143 853.252 16.6183 851.075 19.2623V4H844V48H851.075V29.1273C851.075 24.9698 853.901 22.0888 857.5 22.0888C861.099 22.0888 862.925 24.5322 862.925 28.945V48H870V26.7932C870 19.7364 865.98 15.2143 859.625 15.2143Z" fill="#0F2C45"/>
<path d="M830.706 39.1415V22.0759H837.453V15.6716H830.706V6H823.467V15.6716H819V22.0759H823.467V40.3365C823.467 46.4233 826.111 49 832.913 49C834.627 49 836.523 48.8131 838 48.5517V42.2223C836.596 42.409 835.976 42.409 834.991 42.409C831.563 42.409 830.706 41.4754 830.706 39.1415Z" fill="#0F2C45"/>
<path d="M767.233 15C763.626 15 760.619 16.4124 758.342 19.0722V15.6236H751V48H758.342V29.0145C758.342 24.8322 761.294 21.9339 765.028 21.9339C768.763 21.9339 770.658 24.392 770.658 28.8311V48H778V26.6665C778 19.5675 773.828 15.0184 767.233 15.0184V15Z" fill="#0F2C45"/>
<path d="M692.688 4H685V48H713V41.1438H692.688V4Z" fill="#0F2C45"/>
<path d="M730.517 15C726.047 15 722.075 16.8158 719.156 20.1139C716.478 23.1711 715 27.4699 715 32.0094C715 36.8083 716.496 41.0326 719.23 44.0899C722.149 47.2583 726.176 49 730.85 49C737.315 49 742.525 45.5723 744.815 39.847L738.424 37.4196C737.426 40.6621 734.581 42.6448 730.85 42.6448C726.065 42.6448 722.722 39.1614 722.149 33.6214H745V31.1384C745 26.3395 743.688 22.4115 741.084 19.484C738.479 16.5009 734.932 15 730.536 15H730.517ZM722.5 28.0071C723.553 23.7085 726.472 21.2812 730.443 21.2812C734.729 21.2812 737.389 23.9494 737.463 28.0071H722.5Z" fill="#0F2C45"/>
<path d="M764.294 185.001V152.637H768.386V157.845C770.556 154.187 774.214 152.017 778.616 152.017C785.312 152.017 789.28 156.481 789.28 163.735V185.001H785.188V164.665C785.188 159.023 782.522 155.861 777.624 155.861C775.206 155.861 772.788 156.915 771.052 158.651C769.316 160.449 768.386 162.743 768.386 165.409V185.001H764.294Z" fill="#0F2C45"/>
<path d="M752.544 157.101C755.024 160.077 756.264 164.169 756.264 168.819C756.264 173.469 755.024 177.561 752.544 180.537C750.002 183.823 746.158 185.621 741.694 185.621C737.23 185.621 733.51 183.823 730.844 180.537C728.426 177.561 727.186 173.469 727.186 168.819C727.186 164.169 728.426 160.077 730.844 157.101C733.51 153.815 737.23 152.017 741.694 152.017C746.158 152.017 750.002 153.815 752.544 157.101ZM731.278 168.819C731.278 176.817 735.432 182.087 741.694 182.087C747.956 182.087 752.11 176.817 752.11 168.819C752.11 160.821 747.956 155.551 741.694 155.551C735.432 155.551 731.278 160.821 731.278 168.819Z" fill="#0F2C45"/>
<path d="M714.639 146.002V140.484H719.413V146.002H714.639ZM714.949 185V152.636H719.041V185H714.949Z" fill="#0F2C45"/>
<path d="M702.87 185.31C697.228 185.31 694.872 182.892 694.872 177.622V156.17H689.478V152.636H694.872V143.274H698.902V152.636H706.714V156.17H698.902V177.002C698.902 180.288 700.142 181.652 703.676 181.652C705.102 181.652 706.28 181.466 707.582 181.156V184.752C706.032 185.186 704.606 185.31 702.87 185.31Z" fill="#0F2C45"/>
<path d="M679.405 180.785C677.359 183.699 673.329 185.621 669.113 185.621C662.975 185.621 658.697 181.963 658.697 176.445C658.697 170.803 662.541 167.517 672.151 165.595L679.157 164.169V162.185C679.157 157.907 676.677 155.675 672.027 155.675C667.563 155.675 664.649 157.845 663.595 161.875L659.689 160.697C661.239 155.427 666.013 152.017 672.151 152.017C679.157 152.017 683.249 155.613 683.249 161.999V179.235C683.249 181.405 684.861 182.335 687.279 181.591V185.063C682.381 185.745 679.715 184.257 679.405 180.785ZM662.851 176.383C662.851 179.917 665.517 182.211 669.547 182.211C672.213 182.211 674.507 181.467 676.367 179.917C678.227 178.367 679.157 176.445 679.157 174.275V167.455L673.329 168.695C669.299 169.501 666.509 170.493 665.021 171.671C663.595 172.787 662.851 174.337 662.851 176.383Z" fill="#0F2C45"/>
<path d="M643.128 185.001H639.222L626.884 152.637H631.224L641.206 179.855L651.188 152.637H655.466L643.128 185.001Z" fill="#0F2C45"/>
<path d="M619.825 157.101C622.305 160.077 623.545 164.169 623.545 168.819C623.545 173.469 622.305 177.561 619.825 180.537C617.283 183.823 613.439 185.621 608.975 185.621C604.511 185.621 600.791 183.823 598.125 180.537C595.707 177.561 594.467 173.469 594.467 168.819C594.467 164.169 595.707 160.077 598.125 157.101C600.791 153.815 604.511 152.017 608.975 152.017C613.439 152.017 617.283 153.815 619.825 157.101ZM598.559 168.819C598.559 176.817 602.713 182.087 608.975 182.087C615.237 182.087 619.391 176.817 619.391 168.819C619.391 160.821 615.237 155.551 608.975 155.551C602.713 155.551 598.559 160.821 598.559 168.819Z" fill="#0F2C45"/>
<path d="M561.644 185.001V152.637H565.736V157.845C567.906 154.187 571.564 152.017 575.966 152.017C582.662 152.017 586.63 156.481 586.63 163.735V185.001H582.538V164.665C582.538 159.023 579.872 155.861 574.974 155.861C572.556 155.861 570.138 156.915 568.402 158.651C566.666 160.449 565.736 162.743 565.736 165.409V185.001H561.644Z" fill="#0F2C45"/>
<path d="M526.526 185.001V152.637H530.618V157.845C532.788 154.187 536.446 152.017 540.848 152.017C547.544 152.017 551.512 156.481 551.512 163.735V185.001H547.42V164.665C547.42 159.023 544.754 155.861 539.856 155.861C537.438 155.861 535.02 156.915 533.284 158.651C531.548 160.449 530.618 162.743 530.618 165.409V185.001H526.526Z" fill="#0F2C45"/>
<path d="M515.796 140.484V185H511.456V140.484H515.796Z" fill="#0F2C45"/>
</svg>
